<?xml version="1.0" encoding="UTF-8" standalone="no"?>
<svg width="1282px" height="680px" viewBox="0 0 1282 680" version="1.1" xmlns="http://www.w3.org/2000/svg" xmlns:xlink="http://www.w3.org/1999/xlink">
    <!-- Generator: Sketch 42 (36781) - http://www.bohemiancoding.com/sketch -->
    <title>ux-ui-logo</title>
    <desc>Created with Sketch.</desc>
    <defs></defs>
    <g id="Page-1" stroke="none" stroke-width="1" fill="none" fill-rule="evenodd">
        <g id="ux-ui-logo" transform="translate(0.000000, -679.000000)"></g>
        <g id="ux-ui-logo">
            <g id="Logo" transform="translate(242.000000, 116.000000)">
                <circle id="Oval" fill="#EB5E03" fill-rule="nonzero" style="mix-blend-mode: multiply;" cx="223.58" cy="223.6" r="222.89"></circle>
                <circle id="Oval" fill="#FFCF00" fill-rule="nonzero" style="mix-blend-mode: multiply;" cx="574.25" cy="223.6" r="222.89"></circle>
                <path d="M220.61,252.54 C220.61,260.46004 219.803341,267.866632 218.19,274.76 C216.576659,281.653368 213.936685,287.703307 210.27,292.91 C206.603315,298.116693 201.80003,302.223318 195.86,305.23 C189.91997,308.236682 182.623377,309.74 173.97,309.74 C165.316623,309.74 158.093362,308.236682 152.3,305.23 C146.506638,302.223318 141.776685,298.116693 138.11,292.91 C134.443315,287.703307 131.840008,281.653368 130.3,274.76 C128.759992,267.866632 127.99,260.46004 127.99,252.54 L127.99,150.24 L147.79,150.24 L147.79,250.56 C147.79,255.840026 148.193329,260.936642 149,265.85 C149.806671,270.763358 151.19999,275.126648 153.18,278.94 C155.16001,282.753352 157.873316,285.796655 161.32,288.07 C164.766684,290.343345 169.129974,291.48 174.41,291.48 C179.690026,291.48 184.01665,290.343345 187.39,288.07 C190.76335,285.796655 193.43999,282.753352 195.42,278.94 C197.40001,275.126648 198.793329,270.763358 199.6,265.85 C200.406671,260.936642 200.81,255.840026 200.81,250.56 L200.81,150.24 L220.61,150.24 L220.61,252.54 Z M283.49,208.32 L309.01,150.24 L329.47,150.24 L294.05,223.94 L333.65,306 L312.09,306 L282.83,240.44 L253.57,306 L232.67,306 L272.05,223.72 L236.63,150.24 L257.53,150.24 L283.49,208.32 Z" id="UX" fill="#FFFFFF"></path>
                <path d="M595.14,252.54 C595.14,260.46004 594.333341,267.866632 592.72,274.76 C591.106659,281.653368 588.466685,287.703307 584.8,292.91 C581.133315,298.116693 576.33003,302.223318 570.39,305.23 C564.44997,308.236682 557.153377,309.74 548.5,309.74 C539.846623,309.74 532.623362,308.236682 526.83,305.23 C521.036638,302.223318 516.306685,298.116693 512.64,292.91 C508.973315,287.703307 506.370008,281.653368 504.83,274.76 C503.289992,267.866632 502.52,260.46004 502.52,252.54 L502.52,150.24 L522.32,150.24 L522.32,250.56 C522.32,255.840026 522.723329,260.936642 523.53,265.85 C524.336671,270.763358 525.72999,275.126648 527.71,278.94 C529.69001,282.753352 532.403316,285.796655 535.85,288.07 C539.296684,290.343345 543.659974,291.48 548.94,291.48 C554.220026,291.48 558.54665,290.343345 561.92,288.07 C565.29335,285.796655 567.96999,282.753352 569.95,278.94 C571.93001,275.126648 573.323329,270.763358 574.13,265.85 C574.936671,260.936642 575.34,255.840026 575.34,250.56 L575.34,150.24 L595.14,150.24 L595.14,252.54 Z M623.26,306 L623.26,150.24 L643.06,150.24 L643.06,306 L623.26,306 Z" id="UI" fill="#000000"></path>
            </g>
            <rect id="Rectangle-path" stroke="#FFFFFF" stroke-width="0.5" x="1" y="1" width="1280" height="677.97"></rect>
        </g>
    </g>
</svg>